<?xml version="1.0" standalone="no"?>
<!DOCTYPE svg PUBLIC "-//W3C//DTD SVG 20010904//EN"
 "http://www.w3.org/TR/2001/REC-SVG-20010904/DTD/svg10.dtd">
<svg version="1.0" xmlns="http://www.w3.org/2000/svg"
 width="500.000000pt" height="500.000000pt" viewBox="0 0 500.000000 500.000000"
 preserveAspectRatio="xMidYMid meet">

<g transform="translate(0.000000,500.000000) scale(0.100000,-0.100000)"
fill="#000000" stroke="none">
<path d="M2339 4173 c-1 -5 -1 -12 0 -17 2 -11 -42 -126 -49 -126 -3 0 -22 24
-42 54 -28 40 -34 56 -26 64 9 9 7 12 -7 11 -31 -2 -82 -16 -63 -18 9 0 42
-32 73 -71 52 -65 56 -73 58 -130 2 -59 3 -60 31 -60 24 0 27 2 16 15 -7 9
-17 38 -21 66 -7 43 -4 57 23 117 17 37 38 75 46 85 14 16 13 17 -11 17 -15 0
-28 -3 -28 -7z"/>
<path d="M2724 4147 c-37 -29 -31 -66 23 -137 40 -53 45 -66 37 -87 -18 -51
-92 -46 -104 7 -5 22 -7 23 -13 7 -11 -30 -9 -36 23 -52 39 -20 62 -19 94 6
41 32 35 73 -19 143 -49 63 -50 68 -35 97 13 24 65 26 78 3 6 -11 11 -13 16
-5 21 33 -62 48 -100 18z"/>
<path d="M1976 4106 c-20 -9 -24 -15 -14 -19 14 -5 92 -187 84 -195 -2 -2 -68
29 -146 68 -104 52 -141 67 -136 53 61 -153 86 -230 83 -245 -4 -15 -1 -18 16
-12 29 9 34 14 20 22 -15 9 -83 192 -72 192 5 0 68 -30 140 -66 72 -36 133
-64 135 -62 2 2 -17 56 -42 119 -25 63 -43 124 -41 137 2 12 4 22 3 21 0 0
-14 -6 -30 -13z"/>
<path d="M3010 3983 c-47 -53 -97 -103 -112 -112 l-28 -18 34 -10 c29 -9 33
-8 29 6 -2 9 9 28 24 43 l28 27 48 -17 47 -17 0 -47 c0 -31 -4 -48 -12 -49 -7
0 3 -7 22 -14 46 -18 55 -18 41 -1 -7 9 -16 73 -21 156 -4 78 -10 143 -11 145
-2 1 -42 -40 -89 -92z m67 -80 c-3 -2 -23 4 -46 13 l-41 16 43 50 42 50 3 -62
c2 -34 1 -64 -1 -67z"/>
<path d="M3347 3950 c5 -20 -69 -157 -113 -209 l-23 -28 65 -38 c65 -37 66
-38 85 -18 19 19 19 19 -14 15 -21 -2 -45 3 -65 15 l-31 19 58 97 c31 53 65
105 75 116 17 19 17 20 -12 35 -29 15 -30 15 -25 -4z"/>
<path d="M1572 3922 c-21 -17 -21 -18 -3 -29 25 -16 124 -157 113 -161 -5 -1
-73 11 -152 28 -79 16 -145 29 -146 27 -2 -2 30 -50 71 -107 41 -56 75 -111
75 -122 0 -18 1 -18 26 -1 24 15 25 17 8 24 -16 5 -141 169 -130 169 1 0 70
-13 151 -30 81 -16 152 -30 156 -30 5 0 -11 26 -35 58 -80 107 -115 163 -109
177 7 19 3 19 -25 -3z"/>
<path d="M3587 3725 c-76 -26 -112 -81 -104 -159 4 -42 10 -55 45 -87 53 -50
97 -58 157 -29 60 29 100 94 92 150 -12 94 -105 155 -190 125z m126 -35 c39
-31 52 -80 32 -126 -19 -47 -41 -71 -80 -91 -57 -30 -118 -14 -148 37 -33 55
-16 112 48 169 44 38 107 43 148 11z"/>
<path d="M1226 3641 c-13 -14 -15 -21 -6 -21 19 0 143 -108 161 -141 22 -38
13 -74 -24 -105 -24 -20 -38 -24 -60 -20 -35 7 -166 111 -176 140 -7 18 -8 18
-24 -5 -13 -18 -14 -25 -5 -28 7 -2 48 -32 91 -67 58 -47 87 -64 109 -64 63 0
118 57 118 122 0 28 -11 43 -79 108 -43 41 -80 81 -82 88 -3 10 -10 8 -23 -7z"/>
<path d="M2507 3643 c18 -2 50 -2 70 0 21 2 7 4 -32 4 -38 0 -55 -2 -38 -4z"/>
<path d="M2428 3633 c7 -3 16 -2 19 1 4 3 -2 6 -13 5 -11 0 -14 -3 -6 -6z"/>
<path d="M2648 3633 c7 -3 16 -2 19 1 4 3 -2 6 -13 5 -11 0 -14 -3 -6 -6z"/>
<path d="M2300 3600 c-8 -5 -10 -10 -5 -10 6 0 17 5 25 10 8 5 11 10 5 10 -5
0 -17 -5 -25 -10z"/>
<path d="M2770 3596 c0 -2 8 -10 18 -17 15 -13 16 -12 3 4 -13 16 -21 21 -21
13z"/>
<path d="M2558 3573 c23 -2 59 -2 80 0 20 2 1 4 -43 4 -44 0 -61 -2 -37 -4z"/>
<path d="M2448 3563 c6 -2 18 -2 25 0 6 3 1 5 -13 5 -14 0 -19 -2 -12 -5z"/>
<path d="M2708 3560 c12 -5 22 -17 23 -27 0 -11 3 -13 6 -5 7 17 -15 42 -36
41 -11 0 -9 -3 7 -9z"/>
<path d="M2398 3553 c7 -3 16 -2 19 1 4 3 -2 6 -13 5 -11 0 -14 -3 -6 -6z"/>
<path d="M2169 3523 c-13 -16 -12 -17 4 -4 16 13 21 21 13 21 -2 0 -10 -8 -17
-17z"/>
<path d="M2294 3514 c-18 -14 -18 -15 4 -4 12 6 22 13 22 15 0 8 -5 6 -26 -11z"/>
<path d="M2463 3523 c9 -2 23 -2 30 0 6 3 -1 5 -18 5 -16 0 -22 -2 -12 -5z"/>
<path d="M2578 3523 c6 -2 18 -2 25 0 6 3 1 5 -13 5 -14 0 -19 -2 -12 -5z"/>
<path d="M2408 3513 c7 -3 16 -2 19 1 4 3 -2 6 -13 5 -11 0 -14 -3 -6 -6z"/>
<path d="M2753 3509 c-6 -6 -17 -12 -24 -13 -8 -2 -31 -10 -51 -20 -47 -20
-49 -20 -42 2 3 9 -3 5 -12 -10 -10 -16 -27 -28 -38 -28 -25 0 -18 -5 17 -14
16 -4 26 -3 23 2 -5 9 25 25 99 53 17 7 44 12 60 12 30 0 30 0 2 4 -15 2 -25
9 -22 14 8 12 1 11 -12 -2z"/>
<path d="M2368 3503 c7 -3 16 -2 19 1 4 3 -2 6 -13 5 -11 0 -14 -3 -6 -6z"/>
<path d="M2241 3474 c-29 -36 -26 -44 12 -43 23 1 26 3 10 6 -35 7 -27 20 10
16 29 -3 26 1 -12 13 -11 3 -11 7 -1 19 7 8 10 15 7 15 -3 0 -15 -12 -26 -26z"/>
<path d="M2453 3453 c9 -2 25 -2 35 0 9 3 1 5 -18 5 -19 0 -27 -2 -17 -5z"/>
<path d="M2900 3456 c0 -2 8 -10 18 -17 15 -13 16 -12 3 4 -13 16 -21 21 -21
13z"/>
<path d="M2528 3443 c7 -3 16 -2 19 1 4 3 -2 6 -13 5 -11 0 -14 -3 -6 -6z"/>
<path d="M3920 3437 c-30 -28 -198 -127 -214 -127 -14 0 -15 -3 -5 -22 8 -14
14 -18 16 -11 5 14 172 118 179 111 2 -3 -14 -69 -35 -149 -22 -79 -37 -146
-35 -148 2 -2 12 3 21 11 41 35 213 129 224 122 6 -4 3 8 -7 25 -15 27 -20 29
-22 14 -2 -12 -37 -40 -88 -71 -46 -29 -86 -52 -88 -52 -1 0 16 70 39 155 23
85 39 155 36 155 -4 0 -13 -6 -21 -13z"/>
<path d="M2153 3420 c-30 -13 -43 -15 -44 -7 0 7 -4 3 -8 -8 -12 -28 -8 -29
35 -6 21 12 44 21 51 21 6 0 15 5 18 10 9 15 -5 12 -52 -10z"/>
<path d="M2373 3433 c15 -2 37 -2 50 0 12 2 0 4 -28 4 -27 0 -38 -2 -22 -4z"/>
<path d="M2773 3433 c15 -2 39 -2 55 0 15 2 2 4 -28 4 -30 0 -43 -2 -27 -4z"/>
<path d="M2478 3423 c7 -3 16 -2 19 1 4 3 -2 6 -13 5 -11 0 -14 -3 -6 -6z"/>
<path d="M2871 3427 c2 -2 18 -11 34 -21 l30 -17 -24 20 c-13 12 -28 21 -34
21 -6 0 -8 -1 -6 -3z"/>
<path d="M2682 3412 c-9 -6 -5 -12 13 -20 15 -7 24 -8 20 -2 -3 5 2 10 12 11
16 0 16 1 -2 9 -26 11 -28 11 -43 2z"/>
<path d="M2778 3403 c6 -2 18 -2 25 0 6 3 1 5 -13 5 -14 0 -19 -2 -12 -5z"/>
<path d="M2193 3393 c9 -2 23 -2 30 0 6 3 -1 5 -18 5 -16 0 -22 -2 -12 -5z"/>
<path d="M2313 3393 c9 -2 23 -2 30 0 6 3 -1 5 -18 5 -16 0 -22 -2 -12 -5z"/>
<path d="M2590 3390 c8 -5 20 -10 25 -10 6 0 3 5 -5 10 -8 5 -19 10 -25 10 -5
0 -3 -5 5 -10z"/>
<path d="M2835 3388 c11 -6 29 -18 40 -27 12 -9 8 -4 -7 12 -16 15 -34 27 -41
27 -6 0 -3 -6 8 -12z"/>
<path d="M2936 3385 c-9 -26 -7 -32 5 -12 6 10 9 21 6 23 -2 3 -7 -2 -11 -11z"/>
<path d="M2093 3364 c-18 -7 -37 -24 -44 -36 -11 -23 -11 -22 15 2 22 19 41
25 104 31 55 4 64 6 30 7 -25 1 -52 4 -60 6 -7 2 -27 -2 -45 -10z"/>
<path d="M2950 3357 c0 -7 -9 -20 -20 -30 -11 -9 -20 -25 -20 -34 0 -15 2 -16
10 -3 9 13 11 13 20 0 7 -12 9 -11 8 5 0 11 3 32 7 48 4 15 4 27 1 27 -3 0 -6
-6 -6 -13z"/>
<path d="M2818 3300 c50 -50 60 -65 51 -76 -7 -9 -21 -12 -33 -9 -17 5 -18 4
-6 -4 13 -9 12 -11 -4 -11 -14 0 -16 -3 -7 -13 6 -8 7 -18 3 -22 -4 -5 -1 -5
6 -1 7 4 10 11 7 16 -3 5 4 11 15 15 22 7 66 63 56 72 -3 4 -6 1 -6 -5 0 -23
-22 -11 -83 45 l-62 56 63 -63z"/>
<path d="M2740 3285 c30 -30 57 -55 59 -55 3 0 -19 25 -49 55 -30 30 -57 55
-59 55 -3 0 19 -25 49 -55z"/>
<path d="M1909 3303 l-24 -28 28 24 c25 23 32 31 24 31 -2 0 -14 -12 -28 -27z"/>
<path d="M2163 3323 c15 -2 37 -2 50 0 12 2 0 4 -28 4 -27 0 -38 -2 -22 -4z"/>
<path d="M966 3295 c-21 -32 -20 -78 2 -98 23 -21 67 -22 122 -2 60 21 87 19
105 -9 29 -44 -22 -106 -67 -81 -7 5 -6 0 3 -10 22 -22 50 -13 72 24 25 42 22
76 -9 100 -33 26 -42 26 -125 -1 -66 -21 -69 -21 -89 -3 -11 10 -20 26 -20 35
0 20 30 50 51 50 12 0 11 2 -1 10 -22 14 -26 13 -44 -15z"/>
<path d="M2400 3310 c8 -5 20 -10 25 -10 6 0 3 5 -5 10 -8 5 -19 10 -25 10 -5
0 -3 -5 5 -10z"/>
<path d="M2024 3270 c-4 -16 -10 -30 -15 -30 -5 0 -9 -6 -9 -13 0 -8 -9 -22
-19 -31 -11 -10 -17 -25 -14 -35 3 -12 -4 -24 -17 -34 -17 -12 -18 -15 -5 -20
9 -4 15 -1 15 8 0 18 12 19 27 4 5 -5 34 -8 64 -6 l54 3 -59 2 c-54 2 -57 3
-45 20 13 15 12 16 -3 3 -16 -12 -18 -11 -18 2 0 50 43 76 127 79 47 1 50 2
18 5 -22 3 -44 8 -50 13 -6 5 -18 2 -29 -6 -37 -27 -40 -14 -5 23 18 21 23 29
10 18 l-24 -20 7 23 c4 12 5 22 1 22 -3 0 -8 -13 -11 -30z"/>
<path d="M2163 3273 c15 -2 39 -2 55 0 15 2 2 4 -28 4 -30 0 -43 -2 -27 -4z"/>
<path d="M1885 3260 c3 -5 2 -10 -3 -10 -6 0 -13 -8 -16 -17 -6 -15 -5 -15 13
1 18 16 20 36 5 36 -3 0 -2 -4 1 -10z"/>
<path d="M2092 3263 c-13 -5 -7 -23 9 -23 6 0 8 4 5 9 -4 5 0 12 6 14 7 3 9 5
3 5 -5 0 -16 -2 -23 -5z"/>
<path d="M2235 3260 c-18 -8 -17 -9 7 -9 15 -1 30 4 33 9 7 12 -12 12 -40 0z"/>
<path d="M2951 3254 c0 -11 3 -14 6 -6 3 7 2 16 -1 19 -3 4 -6 -2 -5 -13z"/>
<path d="M2138 3253 c6 -2 18 -2 25 0 6 3 1 5 -13 5 -14 0 -19 -2 -12 -5z"/>
<path d="M2290 3251 c0 -9 51 -25 66 -21 4 1 10 -4 14 -10 5 -8 10 -9 14 -2 3
6 -15 17 -41 26 -55 19 -53 19 -53 7z"/>
<path d="M2922 3230 c0 -14 2 -19 5 -12 2 6 2 18 0 25 -3 6 -5 1 -5 -13z"/>
<path d="M2480 3230 c8 -5 20 -10 25 -10 6 0 3 5 -5 10 -8 5 -19 10 -25 10 -5
0 -3 -5 5 -10z"/>
<path d="M2960 3214 c0 -10 -3 -30 -5 -44 -5 -21 -4 -22 3 -5 7 16 12 3 22
-55 7 -41 15 -70 17 -63 4 12 -24 173 -32 181 -3 3 -5 -3 -5 -14z"/>
<path d="M2395 3210 c-4 -6 1 -7 11 -3 12 4 15 3 10 -5 -5 -8 -2 -10 9 -5 13
5 14 7 3 14 -17 11 -26 11 -33 -1z"/>
<path d="M1853 3200 c2 -8 -2 -21 -10 -28 -7 -7 -13 -19 -13 -25 0 -6 7 -1 16
11 8 12 25 23 37 23 20 1 21 2 2 6 -11 3 -24 10 -28 17 -6 7 -7 6 -4 -4z"/>
<path d="M2644 3186 c11 -9 24 -16 30 -16 12 0 7 5 -24 19 -24 11 -24 11 -6
-3z"/>
<path d="M2430 3186 c0 -2 8 -10 18 -17 15 -13 16 -12 3 4 -13 16 -21 21 -21
13z"/>
<path d="M2758 3183 c7 -3 16 -2 19 1 4 3 -2 6 -13 5 -11 0 -14 -3 -6 -6z"/>
<path d="M2073 3163 c15 -2 37 -2 50 0 12 2 0 4 -28 4 -27 0 -38 -2 -22 -4z"/>
<path d="M2879 3143 l-24 -28 28 24 c25 23 32 31 24 31 -2 0 -14 -12 -28 -27z"/>
<path d="M2370 3146 c0 -2 8 -10 18 -17 15 -13 16 -12 3 4 -13 16 -21 21 -21
13z"/>
<path d="M2713 3133 c9 -2 23 -2 30 0 6 3 -1 5 -18 5 -16 0 -22 -2 -12 -5z"/>
<path d="M2240 3126 c0 -2 8 -10 18 -17 15 -13 16 -12 3 4 -13 16 -21 21 -21
13z"/>
<path d="M1822 3100 c0 -14 2 -19 5 -12 2 6 2 18 0 25 -3 6 -5 1 -5 -13z"/>
<path d="M2914 3098 l-19 -23 23 19 c21 18 27 26 19 26 -2 0 -12 -10 -23 -22z"/>
<path d="M2678 3103 c7 -3 16 -2 19 1 4 3 -2 6 -13 5 -11 0 -14 -3 -6 -6z"/>
<path d="M2743 3093 c9 -2 25 -2 35 0 9 3 1 5 -18 5 -19 0 -27 -2 -17 -5z"/>
<path d="M2421 3080 c-1 -21 27 -100 31 -88 4 8 -2 32 -12 54 -10 21 -19 37
-19 34z"/>
<path d="M1809 3053 c-13 -16 -12 -17 4 -4 9 7 17 15 17 17 0 8 -8 3 -21 -13z"/>
<path d="M1917 3053 c-4 -3 -7 -18 -6 -32 1 -26 1 -25 10 3 9 31 7 41 -4 29z"/>
<path d="M2678 3043 c7 -3 16 -2 19 1 4 3 -2 6 -13 5 -11 0 -14 -3 -6 -6z"/>
<path d="M2788 3043 c7 -3 16 -2 19 1 4 3 -2 6 -13 5 -11 0 -14 -3 -6 -6z"/>
<path d="M1819 2983 l-24 -28 28 24 c25 23 32 31 24 31 -2 0 -14 -12 -28 -27z"/>
<path d="M2177 2989 c-4 -16 -3 -18 9 -8 7 6 11 15 8 20 -8 13 -11 11 -17 -12z"/>
<path d="M2548 2993 c7 -3 16 -2 19 1 4 3 -2 6 -13 5 -11 0 -14 -3 -6 -6z"/>
<path d="M2733 2993 c9 -2 23 -2 30 0 6 3 -1 5 -18 5 -16 0 -22 -2 -12 -5z"/>
<path d="M1911 2975 c-1 -12 -6 -26 -12 -32 -7 -7 -8 -13 0 -17 12 -8 26 36
18 56 -3 7 -6 4 -6 -7z"/>
<path d="M2618 2983 c12 -2 32 -2 45 0 12 2 2 4 -23 4 -25 0 -35 -2 -22 -4z"/>
<path d="M2790 2986 c0 -2 7 -7 16 -10 8 -3 12 -2 9 4 -6 10 -25 14 -25 6z"/>
<path d="M2240 2975 c0 -5 5 -17 10 -25 5 -8 10 -10 10 -5 0 6 -5 17 -10 25
-5 8 -10 11 -10 5z"/>
<path d="M2830 2966 c0 -3 9 -10 20 -16 11 -6 20 -8 20 -6 0 3 -9 10 -20 16
-11 6 -20 8 -20 6z"/>
<path d="M2214 2930 c1 -23 -39 -69 -50 -57 -3 2 -18 -8 -34 -24 -29 -29 -58
-40 -44 -16 4 6 -1 5 -12 -4 -39 -32 -54 -31 -55 4 l-2 32 -4 -30 c-3 -16 -10
-36 -16 -43 -9 -12 -12 -11 -18 5 -6 15 -8 14 -8 -7 -1 -21 -3 -22 -12 -10 -9
13 -10 13 -6 -2 6 -17 -15 -42 -26 -31 -4 3 -7 -1 -7 -10 0 -13 7 -15 38 -10
33 6 36 5 24 -10 -8 -9 -12 -22 -9 -29 4 -8 6 -7 6 5 1 23 18 22 26 -3 8 -26
-4 -48 -16 -29 -5 8 -9 9 -9 3 0 -18 13 -24 27 -13 10 9 13 8 13 -5 0 -10 5
-14 11 -10 8 4 8 9 0 17 -6 6 -11 21 -11 34 0 13 -4 23 -10 23 -5 0 -10 7 -10
15 0 21 30 31 42 14 8 -11 9 -10 4 4 -3 10 -6 21 -6 23 0 3 -10 -1 -22 -8 -27
-14 -59 -18 -52 -6 11 18 87 49 112 46 23 -3 27 -8 30 -38 2 -31 1 -33 -12
-17 -13 16 -14 16 -27 0 -10 -12 -11 -15 -1 -9 16 10 45 -13 38 -30 -3 -8 0
-11 9 -8 7 3 15 0 18 -8 2 -7 2 -4 0 7 -9 37 -20 105 -18 105 1 0 18 -12 36
-27 22 -18 34 -35 32 -48 -2 -13 0 -15 3 -5 4 8 13 21 22 28 11 8 12 12 3 12
-7 0 -28 13 -47 30 -35 31 -30 46 12 36 20 -5 24 -3 24 16 0 14 9 27 22 33 26
12 40 52 15 42 -11 -4 -17 1 -20 16 -3 18 -4 18 -3 -3z m21 -39 c-3 -6 -11
-11 -17 -11 -6 0 -6 6 2 15 14 17 26 13 15 -4z m-42 -31 c-3 -12 -14 -20 -27
-20 -20 0 -20 1 4 20 14 11 26 20 27 20 0 0 -1 -9 -4 -20z"/>
<path d="M2451 2944 c0 -11 3 -14 6 -6 3 7 2 16 -1 19 -3 4 -6 -2 -5 -13z"/>
<path d="M2992 2940 c0 -14 2 -19 5 -12 2 6 2 18 0 25 -3 6 -5 1 -5 -13z"/>
<path d="M2099 2912 c5 -34 6 -35 9 -8 2 16 0 32 -5 37 -5 5 -7 -7 -4 -29z"/>
<path d="M1751 2924 c0 -11 3 -14 6 -6 3 7 2 16 -1 19 -3 4 -6 -2 -5 -13z"/>
<path d="M2151 2924 c0 -11 3 -14 6 -6 3 7 2 16 -1 19 -3 4 -6 -2 -5 -13z"/>
<path d="M2370 2920 c6 -11 13 -20 16 -20 2 0 0 9 -6 20 -6 11 -13 20 -16 20
-2 0 0 -9 6 -20z"/>
<path d="M2490 2936 c0 -2 8 -10 18 -17 15 -13 16 -12 3 4 -13 16 -21 21 -21
13z"/>
<path d="M2888 2933 c6 -2 18 -2 25 0 6 3 1 5 -13 5 -14 0 -19 -2 -12 -5z"/>
<path d="M2005 2921 c-3 -5 -1 -12 5 -16 5 -3 10 1 10 9 0 18 -6 21 -15 7z"/>
<path d="M2064 2908 l-19 -23 23 19 c21 18 27 26 19 26 -2 0 -12 -10 -23 -22z"/>
<path d="M2270 2889 c0 -11 4 -18 10 -14 5 3 7 12 3 20 -7 21 -13 19 -13 -6z"/>
<path d="M2680 2901 c20 -4 42 -11 49 -16 9 -5 12 -4 7 3 -3 5 0 13 6 15 7 3
-12 5 -42 5 -48 0 -51 -1 -20 -7z"/>
<path d="M2578 2893 c12 -2 30 -2 40 0 9 3 -1 5 -23 4 -22 0 -30 -2 -17 -4z"/>
<path d="M1791 2874 c0 -11 3 -14 6 -6 3 7 2 16 -1 19 -3 4 -6 -2 -5 -13z"/>
<path d="M2789 2877 c9 -12 12 -33 9 -65 -3 -26 -2 -58 2 -72 4 -16 7 2 8 51
1 62 -2 79 -16 90 -15 13 -16 12 -3 -4z"/>
<path d="M2470 2874 c0 -6 7 -19 16 -30 14 -18 14 -18 3 6 -14 31 -19 36 -19
24z"/>
<path d="M1942 2850 c0 -14 2 -19 5 -12 2 6 2 18 0 25 -3 6 -5 1 -5 -13z"/>
<path d="M2395 2860 c-3 -5 -14 -10 -24 -10 -10 0 -25 -8 -32 -17 -13 -16 -12
-17 3 -4 10 7 24 11 33 8 8 -4 17 -2 21 4 4 6 11 5 22 -3 14 -12 14 -10 3 10
-13 25 -17 26 -26 12z"/>
<path d="M1961 2844 c0 -11 3 -14 6 -6 3 7 2 16 -1 19 -3 4 -6 -2 -5 -13z"/>
<path d="M2226 2852 c15 -9 -2 -56 -17 -46 -8 4 -8 0 0 -15 7 -11 14 -21 17
-21 3 0 2 5 -1 10 -3 6 4 10 17 11 13 0 17 3 11 6 -7 2 -13 13 -13 24 0 18 9
23 40 20 13 -2 13 -1 0 8 -8 6 -26 11 -40 11 -14 0 -20 -3 -14 -8z"/>
<path d="M1829 2822 c-3 -20 -2 -29 4 -23 5 5 7 19 5 32 -3 20 -5 19 -9 -9z"/>
<path d="M1902 2830 c0 -14 2 -19 5 -12 2 6 2 18 0 25 -3 6 -5 1 -5 -13z"/>
<path d="M2310 2833 c9 -19 8 -23 -5 -23 -8 0 -15 5 -15 11 0 5 -5 7 -11 3 -8
-5 -8 -9 1 -14 8 -5 5 -12 -11 -24 -18 -12 -19 -16 -7 -16 9 0 18 6 21 13 3 8
16 2 38 -18 32 -28 32 -28 10 -2 l-24 27 26 0 c14 0 28 4 32 10 3 5 13 7 23 4
13 -5 14 -4 3 4 -7 5 -22 7 -33 4 -14 -3 -27 3 -40 19 -18 23 -19 23 -8 2z"/>
<path d="M2845 2829 c11 -13 21 -26 22 -28 2 -2 3 2 3 10 0 8 -10 20 -22 28
l-23 14 20 -24z"/>
<path d="M2953 2839 c-6 -6 -26 -15 -45 -19 -31 -7 -31 -8 -5 -9 22 -1 27 -6
27 -26 0 -15 -7 -40 -15 -58 -14 -29 -14 -30 0 -13 8 11 15 25 15 30 0 6 4 4
9 -3 6 -10 8 0 4 27 -4 32 -1 47 12 62 19 21 17 28 -2 9z"/>
<path d="M2590 2725 c52 -52 97 -95 100 -95 2 0 -38 43 -90 95 -52 52 -97 95
-100 95 -2 0 38 -43 90 -95z"/>
<path d="M1751 2794 c0 -11 3 -14 6 -6 3 7 2 16 -1 19 -3 4 -6 -2 -5 -13z"/>
<path d="M2711 2805 c0 -5 3 -16 8 -23 7 -11 9 -10 14 3 4 9 3 14 -2 10 -5 -3
-12 1 -14 7 -3 7 -6 9 -6 3z"/>
<path d="M2420 2795 c0 -2 14 -10 31 -19 23 -12 28 -12 20 -2 -11 12 -51 29
-51 21z"/>
<path d="M1911 2774 c0 -11 3 -14 6 -6 3 7 2 16 -1 19 -3 4 -6 -2 -5 -13z"/>
<path d="M2350 2780 c-13 -8 -13 -10 -1 -10 8 0 28 -12 44 -27 17 -17 26 -21
22 -11 -4 9 -14 19 -23 23 -14 5 -14 7 -2 16 13 9 12 10 -2 6 -9 -3 -18 -2
-20 3 -2 6 -9 5 -18 0z"/>
<path d="M1830 2775 c0 -10 60 -125 65 -125 3 0 -6 22 -20 50 -14 27 -25 56
-25 65 0 8 -4 15 -10 15 -5 0 -10 -2 -10 -5z"/>
<path d="M2766 2763 c-6 -14 -5 -15 5 -6 7 7 10 15 7 18 -3 3 -9 -2 -12 -12z"/>
<path d="M2707 2730 c6 -49 13 -66 13 -32 0 11 8 23 18 25 14 4 14 5 1 6 -9 0
-21 11 -27 24 -9 18 -10 14 -5 -23z"/>
<path d="M1770 2734 c0 -6 7 -19 16 -30 14 -18 14 -18 3 6 -14 31 -19 36 -19
24z"/>
<path d="M2535 2690 c27 -27 51 -50 54 -50 3 0 -17 23 -44 50 -27 28 -51 50
-54 50 -3 0 17 -22 44 -50z"/>
<path d="M2290 2720 c0 -5 7 -7 15 -4 8 4 15 8 15 10 0 2 -7 4 -15 4 -8 0 -15
-4 -15 -10z"/>
<path d="M921 2704 c0 -11 3 -14 6 -6 3 7 2 16 -1 19 -3 4 -6 -2 -5 -13z"/>
<path d="M2050 2700 c8 -5 20 -10 25 -10 6 0 3 5 -5 10 -8 5 -19 10 -25 10 -5
0 -3 -5 5 -10z"/>
<path d="M2811 2703 c-2 -18 31 -83 41 -83 5 0 7 -4 4 -8 -3 -5 1 -9 9 -9 11
0 12 4 4 13 -6 7 -8 18 -4 23 3 6 0 8 -8 5 -16 -6 -31 22 -20 38 3 6 1 8 -5 4
-6 -3 -13 2 -15 11 -3 10 -5 13 -6 6z"/>
<path d="M2879 2673 c-12 -16 -12 -17 2 -6 9 7 19 10 22 6 4 -3 7 -1 7 5 0 17
-16 15 -31 -5z"/>
<path d="M4081 2674 c0 -11 3 -14 6 -6 3 7 2 16 -1 19 -3 4 -6 -2 -5 -13z"/>
<path d="M1800 2676 c0 -2 8 -10 18 -17 15 -13 16 -12 3 4 -13 16 -21 21 -21
13z"/>
<path d="M2490 2677 c0 -3 17 -17 37 -33 20 -15 33 -23 29 -16 -8 13 -66 56
-66 49z"/>
<path d="M911 2644 c0 -11 3 -14 6 -6 3 7 2 16 -1 19 -3 4 -6 -2 -5 -13z"/>
<path d="M2056 2643 c-6 -14 -5 -15 5 -6 7 7 10 15 7 18 -3 3 -9 -2 -12 -12z"/>
<path d="M2955 2630 l8 -25 -24 20 c-21 17 -20 15 3 -10 14 -17 28 -43 31 -60
3 -26 4 -24 6 10 2 40 2 40 16 15 8 -14 14 -21 15 -17 0 14 -28 63 -46 78 -15
13 -16 12 -9 -11z m25 -20 c0 -5 -5 -10 -11 -10 -5 0 -7 5 -4 10 3 6 8 10 11
10 2 0 4 -4 4 -10z"/>
<path d="M4092 2620 c0 -14 2 -19 5 -12 2 6 2 18 0 25 -3 6 -5 1 -5 -13z"/>
<path d="M1860 2605 c13 -14 26 -25 28 -25 3 0 -5 11 -18 25 -13 14 -26 25
-28 25 -3 0 5 -11 18 -25z"/>
<path d="M2131 2614 c0 -11 3 -14 6 -6 3 7 2 16 -1 19 -3 4 -6 -2 -5 -13z"/>
<path d="M2570 2617 c0 -2 15 -16 33 -33 l32 -29 -29 33 c-28 30 -36 37 -36
29z"/>
<path d="M2702 2601 c7 -9 14 -18 15 -20 2 -2 3 5 3 16 0 11 -7 20 -15 20 -12
0 -12 -3 -3 -16z"/>
<path d="M1980 2545 c35 -38 68 -74 73 -80 5 -5 5 -1 -1 10 -5 11 -21 32 -35
47 -14 15 -23 29 -21 32 2 3 1 4 -3 1 -4 -3 -23 9 -42 27 -20 18 -7 2 29 -37z"/>
<path d="M2031 2594 c0 -11 3 -14 6 -6 3 7 2 16 -1 19 -3 4 -6 -2 -5 -13z"/>
<path d="M902 2575 c0 -16 2 -22 5 -12 2 9 2 23 0 30 -3 6 -5 -1 -5 -18z"/>
<path d="M1970 2591 c0 -6 4 -13 10 -16 6 -3 7 1 4 9 -7 18 -14 21 -14 7z"/>
<path d="M2253 2590 c9 -6 17 -17 17 -25 0 -8 -8 -19 -17 -24 -10 -6 -13 -11
-7 -11 6 0 17 7 25 16 14 18 3 45 -22 51 -8 3 -7 0 4 -7z"/>
<path d="M2640 2586 c0 -2 8 -10 18 -17 15 -13 16 -12 3 4 -13 16 -21 21 -21
13z"/>
<path d="M1432 2560 c0 -14 2 -19 5 -12 2 6 2 18 0 25 -3 6 -5 1 -5 -13z"/>
<path d="M2122 2545 c0 -16 2 -22 5 -12 2 9 2 23 0 30 -3 6 -5 -1 -5 -18z"/>
<path d="M1935 2540 c10 -11 20 -20 23 -20 3 0 -3 9 -13 20 -10 11 -20 20 -23
20 -3 0 3 -9 13 -20z"/>
<path d="M3042 2535 c0 -16 2 -22 5 -12 2 9 2 23 0 30 -3 6 -5 -1 -5 -18z"/>
<path d="M2200 2546 c0 -2 7 -6 15 -10 8 -3 15 -1 15 4 0 6 -7 10 -15 10 -8 0
-15 -2 -15 -4z"/>
<path d="M2951 2520 c-1 -19 -4 -46 -6 -60 -4 -19 -1 -17 10 9 12 24 13 40 6
60 -9 26 -9 25 -10 -9z"/>
<path d="M4103 2515 c0 -22 2 -30 4 -17 2 12 2 30 0 40 -3 9 -5 -1 -4 -23z"/>
<path d="M1411 2507 c-13 -21 -12 -21 5 -5 10 10 16 20 13 22 -3 3 -11 -5 -18
-17z"/>
<path d="M2650 2511 c0 -6 4 -13 10 -16 6 -3 7 1 4 9 -7 18 -14 21 -14 7z"/>
<path d="M2678 2488 c-5 -34 21 -171 43 -223 7 -16 12 -32 12 -35 -1 -3 14
-15 33 -27 24 -16 35 -18 40 -10 4 7 4 9 0 5 -4 -3 -21 5 -37 19 -21 20 -30
39 -35 75 -4 27 -10 44 -14 38 -10 -15 -35 115 -31 158 3 41 -5 42 -11 0z"/>
<path d="M3572 2495 c0 -16 2 -22 5 -12 2 9 2 23 0 30 -3 6 -5 -1 -5 -18z"/>
<path d="M1980 2507 c0 -2 15 -16 33 -33 l32 -29 -29 33 c-28 30 -36 37 -36
29z"/>
<path d="M2153 2503 c9 -2 23 -2 30 0 6 3 -1 5 -18 5 -16 0 -22 -2 -12 -5z"/>
<path d="M1341 2484 c0 -11 3 -14 6 -6 3 7 2 16 -1 19 -3 4 -6 -2 -5 -13z"/>
<path d="M2110 2458 c41 -45 50 -53 50 -45 0 2 -21 23 -47 47 l-48 45 45 -47z"/>
<path d="M2982 2468 c-13 -15 -19 -28 -12 -28 6 0 13 7 16 15 4 8 10 13 14 10
4 -2 16 5 26 18 14 15 14 18 2 9 -9 -7 -18 -9 -20 -4 -1 5 -13 -4 -26 -20z"/>
<path d="M2229 2473 c-12 -16 -12 -17 1 -6 8 6 26 13 40 16 l25 4 -26 2 c-15
0 -33 -7 -40 -16z"/>
<path d="M2629 2473 c-13 -16 -12 -17 4 -4 16 13 21 21 13 21 -2 0 -10 -8 -17
-17z"/>
<path d="M2900 2485 c0 -5 5 -17 10 -25 5 -8 10 -10 10 -5 0 6 -5 17 -10 25
-5 8 -10 11 -10 5z"/>
<path d="M894 2395 c0 -49 1 -71 3 -48 2 23 2 64 0 90 -2 26 -3 8 -3 -42z"/>
<path d="M2335 2470 c19 -8 19 -9 -2 -9 -13 -1 -23 -6 -23 -12 0 -6 -9 -8 -22
-4 -20 5 -20 4 -6 -5 13 -8 25 -7 47 5 17 8 36 14 42 13 6 -2 14 3 16 10 3 8
-7 12 -34 11 -30 0 -34 -2 -18 -9z"/>
<path d="M1352 2440 c0 -14 2 -19 5 -12 2 6 2 18 0 25 -3 6 -5 1 -5 -13z"/>
<path d="M3580 2451 c0 -6 4 -13 10 -16 6 -3 7 1 4 9 -7 18 -14 21 -14 7z"/>
<path d="M2220 2424 l-25 -15 25 5 c14 3 34 6 45 6 17 0 17 2 5 10 -19 12 -20
12 -50 -6z"/>
<path d="M2349 2423 c-13 -16 -12 -17 4 -4 9 7 17 15 17 17 0 8 -8 3 -21 -13z"/>
<path d="M2560 2395 c-24 -25 -42 -45 -39 -45 3 0 25 20 49 45 24 25 42 45 39
45 -3 0 -25 -20 -49 -45z"/>
<path d="M2732 2415 c0 -16 2 -22 5 -12 2 9 2 23 0 30 -3 6 -5 -1 -5 -18z"/>
<path d="M2052 2395 c0 -16 2 -22 5 -12 2 9 2 23 0 30 -3 6 -5 -1 -5 -18z"/>
<path d="M1455 2390 c-3 -5 -2 -10 4 -10 5 0 13 5 16 10 3 6 2 10 -4 10 -5 0
-13 -4 -16 -10z"/>
<path d="M2083 2365 c0 -22 2 -30 4 -17 2 12 2 30 0 40 -3 9 -5 -1 -4 -23z"/>
<path d="M1297 2383 c-4 -3 -7 -13 -7 -22 1 -13 3 -13 11 2 11 19 8 33 -4 20z"/>
<path d="M2199 2376 c5 -6 27 -12 48 -13 21 -1 29 1 18 4 -11 2 -27 7 -35 10
-31 12 -42 12 -31 -1z"/>
<path d="M2300 2380 c-9 -6 -10 -10 -3 -10 6 0 15 5 18 10 8 12 4 12 -15 0z"/>
<path d="M3646 2382 c-2 -4 -1 -14 4 -22 7 -11 9 -9 7 8 -1 24 -3 26 -11 14z"/>
<path d="M1216 2357 c3 -10 9 -15 12 -12 3 3 0 11 -7 18 -10 9 -11 8 -5 -6z"/>
<path d="M2031 2333 c-10 -26 -10 -27 4 -9 8 11 15 23 15 28 0 15 -7 8 -19
-19z"/>
<path d="M1260 2331 c0 -5 7 -11 14 -14 10 -4 13 -1 9 9 -6 15 -23 19 -23 5z"/>
<path d="M2479 2323 c-13 -16 -12 -17 4 -4 9 7 17 15 17 17 0 8 -8 3 -21 -13z"/>
<path d="M3531 2327 c9 -7 14 -19 12 -27 -4 -13 -3 -13 5 -1 7 10 15 12 24 5
8 -5 2 1 -12 13 -14 13 -29 23 -35 23 -5 -1 -3 -6 6 -13z"/>
<path d="M3690 2325 c0 -5 5 -17 10 -25 5 -8 10 -10 10 -5 0 6 -5 17 -10 25
-5 8 -10 11 -10 5z"/>
<path d="M2057 2287 l-17 -32 20 24 c17 20 26 41 18 41 -2 0 -11 -15 -21 -33z"/>
<path d="M4103 2270 c0 -25 2 -35 4 -22 2 12 2 32 0 45 -2 12 -4 2 -4 -23z"/>
<path d="M2404 2275 c-16 -13 -16 -14 -1 -9 9 3 17 3 17 -1 0 -4 -8 -14 -17
-22 -16 -12 -15 -12 8 -2 19 8 25 17 22 30 -6 23 -5 23 -29 4z"/>
<path d="M3722 2265 c-9 -19 -8 -23 3 -19 17 7 27 31 16 38 -4 3 -13 -6 -19
-19z"/>
<path d="M1364 2255 c-9 -14 -15 -27 -13 -30 3 -2 12 10 21 26 21 36 15 39 -8
4z"/>
<path d="M1979 2253 c-13 -16 -12 -17 4 -4 9 7 17 15 17 17 0 8 -8 3 -21 -13z"/>
<path d="M2195 2260 c-3 -6 1 -7 9 -4 18 7 21 14 7 14 -6 0 -13 -4 -16 -10z"/>
<path d="M2230 2266 c0 -2 7 -7 16 -10 8 -3 12 -2 9 4 -6 10 -25 14 -25 6z"/>
<path d="M2468 2263 c6 -2 18 -2 25 0 6 3 1 5 -13 5 -14 0 -19 -2 -12 -5z"/>
<path d="M2563 2263 c9 -2 23 -2 30 0 6 3 -1 5 -18 5 -16 0 -22 -2 -12 -5z"/>
<path d="M1331 2244 c0 -11 3 -14 6 -6 3 7 2 16 -1 19 -3 4 -6 -2 -5 -13z"/>
<path d="M2307 2247 c3 -5 -4 -6 -18 -2 -28 9 -24 3 10 -15 13 -6 21 -7 17 -2
-3 6 4 12 16 14 21 3 21 4 -4 9 -16 4 -25 2 -21 -4z"/>
<path d="M2628 2253 c7 -3 16 -2 19 1 4 3 -2 6 -13 5 -11 0 -14 -3 -6 -6z"/>
<path d="M2004 2218 l-29 -33 33 29 c30 28 37 36 29 36 -2 0 -16 -15 -33 -32z"/>
<path d="M2112 2238 c-7 -7 -12 -17 -12 -22 0 -6 5 -3 11 7 6 10 22 17 37 17
l27 -1 -24 -19 c-18 -15 -19 -20 -7 -20 9 0 16 -4 16 -9 0 -6 -12 -6 -31 1
-39 13 -48 3 -19 -22 13 -11 19 -20 15 -20 -12 0 27 -29 39 -30 6 0 2 6 -9 13
-20 15 -12 42 11 33 10 -4 11 0 4 19 -11 29 9 35 30 10 7 -8 16 -13 20 -10 13
8 23 -16 12 -27 -15 -15 -3 -48 15 -41 12 5 12 7 1 14 -10 7 -9 9 5 9 9 0 17
-5 17 -11 0 -8 5 -7 15 1 13 11 15 10 10 -6 -4 -10 1 -5 11 11 9 17 30 46 48
65 24 27 25 29 5 12 -20 -18 -28 -20 -32 -10 -3 7 -6 3 -6 -9 -1 -24 -5 -28
-43 -37 -20 -4 -26 -3 -23 6 5 18 -81 88 -109 88 -12 0 -27 -5 -34 -12z m38
-62 c0 -3 -4 -8 -10 -11 -5 -3 -10 -1 -10 4 0 6 5 11 10 11 6 0 10 -2 10 -4z"/>
<path d="M902 2220 c0 -14 2 -19 5 -12 2 6 2 18 0 25 -3 6 -5 1 -5 -13z"/>
<path d="M1282 2228 c8 -7 21 -22 28 -33 9 -17 11 -17 6 -2 -3 10 -6 25 -6 33
0 8 -10 14 -22 14 -19 0 -20 -2 -6 -12z"/>
<path d="M1571 2226 c2 -2 15 -9 29 -15 24 -11 24 -11 6 3 -16 13 -49 24 -35
12z"/>
<path d="M3700 2219 c0 -5 5 -7 10 -4 6 3 10 8 10 11 0 2 -4 4 -10 4 -5 0 -10
-5 -10 -11z"/>
<path d="M3611 2205 c9 -11 19 -27 22 -35 5 -13 6 -13 6 1 1 9 -9 24 -21 35
-23 19 -23 19 -7 -1z"/>
<path d="M1930 2180 c-6 -11 -8 -20 -6 -20 3 0 10 9 16 20 6 11 8 20 6 20 -3
0 -10 -9 -16 -20z"/>
<path d="M4092 2175 c0 -16 2 -22 5 -12 2 9 2 23 0 30 -3 6 -5 -1 -5 -18z"/>
<path d="M2835 2170 c-3 -5 -1 -10 4 -10 6 0 11 5 11 10 0 6 -2 10 -4 10 -3 0
-8 -4 -11 -10z"/>
<path d="M3680 2142 c-5 -20 -8 -38 -5 -40 2 -3 -6 -13 -18 -23 -12 -10 -17
-18 -11 -19 14 0 46 35 39 42 -10 9 17 57 34 60 12 3 10 5 -6 10 -19 5 -24 1
-33 -30z"/>
<path d="M1304 2161 c4 -6 16 -16 28 -22 15 -8 18 -8 14 0 -4 6 -16 16 -28 22
-15 8 -18 8 -14 0z"/>
<path d="M1955 2159 c-4 -6 -5 -12 -2 -15 2 -3 7 2 10 11 7 17 1 20 -8 4z"/>
<path d="M912 2140 c0 -14 2 -19 5 -12 2 6 2 18 0 25 -3 6 -5 1 -5 -13z"/>
<path d="M1515 2150 c-16 -7 -14 -8 12 -7 17 1 29 5 26 10 -5 9 -12 8 -38 -3z"/>
<path d="M3051 2134 c0 -11 3 -14 6 -6 3 7 2 16 -1 19 -3 4 -6 -2 -5 -13z"/>
<path d="M1685 2130 c-3 -6 1 -7 9 -4 18 7 21 14 7 14 -6 0 -13 -4 -16 -10z"/>
<path d="M2080 2118 c0 -4 5 -8 12 -8 6 0 19 -7 29 -16 17 -16 18 -15 7 8 -10
22 -48 34 -48 16z"/>
<path d="M2195 2120 c-11 -5 -15 -9 -9 -9 7 -1 10 -17 8 -43 -1 -24 0 -33 3
-20 4 20 7 21 20 10 15 -12 15 -11 4 10 -7 12 -9 32 -6 42 4 11 5 20 3 19 -2
0 -12 -4 -23 -9z"/>
<path d="M1902 2095 c0 -16 2 -22 5 -12 2 9 2 23 0 30 -3 6 -5 -1 -5 -18z"/>
<path d="M1755 2101 c-3 -5 -1 -12 5 -16 5 -3 10 1 10 9 0 18 -6 21 -15 7z"/>
<path d="M1950 2101 c0 -6 4 -13 10 -16 6 -3 7 1 4 9 -7 18 -14 21 -14 7z"/>
<path d="M2265 2087 c3 -16 2 -27 -2 -24 -4 3 -9 -18 -9 -47 l-1 -51 13 54 c8
35 9 61 3 75 -8 18 -9 17 -4 -7z"/>
<path d="M921 2084 c0 -11 3 -14 6 -6 3 7 2 16 -1 19 -3 4 -6 -2 -5 -13z"/>
<path d="M1397 2081 c3 -12 9 -21 14 -21 14 0 11 16 -5 29 -12 10 -13 8 -9 -8z"/>
<path d="M2068 2084 c11 -22 41 -50 45 -43 1 2 -11 18 -27 34 -20 20 -25 23
-18 9z"/>
<path d="M2230 2084 c0 -8 5 -12 10 -9 6 4 8 11 5 16 -9 14 -15 11 -15 -7z"/>
<path d="M3061 2084 c0 -11 3 -14 6 -6 3 7 2 16 -1 19 -3 4 -6 -2 -5 -13z"/>
<path d="M2158 2083 c7 -3 16 -2 19 1 4 3 -2 6 -13 5 -11 0 -14 -3 -6 -6z"/>
<path d="M3290 2081 c0 -5 7 -12 16 -15 14 -5 15 -4 4 9 -14 17 -20 19 -20 6z"/>
<path d="M3468 2083 c7 -3 16 -2 19 1 4 3 -2 6 -13 5 -11 0 -14 -3 -6 -6z"/>
<path d="M1427 2067 c-9 -23 73 -97 109 -97 10 0 -2 10 -26 23 -24 13 -51 37
-60 55 -11 20 -20 27 -23 19z"/>
<path d="M2465 2005 c-8 -83 -3 -102 49 -172 23 -32 24 -32 30 -10 9 34 8 36
-14 32 -44 -9 -71 80 -51 169 6 27 7 27 22 10 9 -11 26 -37 38 -59 13 -24 19
-30 15 -15 -10 39 -30 73 -57 98 l-25 24 -7 -77z"/>
<path d="M3238 2073 c7 -3 16 -2 19 1 4 3 -2 6 -13 5 -11 0 -14 -3 -6 -6z"/>
<path d="M1735 2060 c-16 -7 -17 -9 -3 -9 9 -1 20 4 23 9 7 11 7 11 -20 0z"/>
<path d="M1970 2067 c0 -2 15 -16 33 -33 l32 -29 -29 33 c-28 30 -36 37 -36
29z"/>
<path d="M4071 2054 c0 -11 3 -14 6 -6 3 7 2 16 -1 19 -3 4 -6 -2 -5 -13z"/>
<path d="M3220 2044 c0 -8 5 -12 10 -9 6 4 8 11 5 16 -9 14 -15 11 -15 -7z"/>
<path d="M931 2034 c0 -11 3 -14 6 -6 3 7 2 16 -1 19 -3 4 -6 -2 -5 -13z"/>
<path d="M1338 2043 c7 -3 16 -2 19 1 4 3 -2 6 -13 5 -11 0 -14 -3 -6 -6z"/>
<path d="M1910 2047 c0 -2 15 -16 33 -33 l32 -29 -29 33 c-28 30 -36 37 -36
29z"/>
<path d="M3072 2030 c0 -14 2 -19 5 -12 2 6 2 18 0 25 -3 6 -5 1 -5 -13z"/>
<path d="M3485 2039 c-4 -6 -5 -12 -2 -15 2 -3 7 2 10 11 7 17 1 20 -8 4z"/>
<path d="M1630 2025 c0 -8 2 -15 4 -15 2 0 6 7 10 15 3 8 1 15 -4 15 -6 0 -10
-7 -10 -15z"/>
<path d="M1280 2020 c-8 -5 -12 -12 -9 -15 4 -3 12 1 19 10 14 17 11 19 -10 5z"/>
<path d="M2151 2014 c0 -11 3 -14 6 -6 3 7 2 16 -1 19 -3 4 -6 -2 -5 -13z"/>
<path d="M3582 2014 c-12 -8 -22 -12 -22 -8 0 4 -10 -6 -22 -22 -13 -16 -29
-34 -38 -41 -12 -10 -8 -10 17 -1 17 7 31 15 30 18 -1 3 14 20 33 38 37 34 39
42 2 16z"/>
<path d="M4061 2014 c0 -11 3 -14 6 -6 3 7 2 16 -1 19 -3 4 -6 -2 -5 -13z"/>
<path d="M3237 2009 c7 -7 15 -10 18 -7 3 3 -2 9 -12 12 -14 6 -15 5 -6 -5z"/>
<path d="M941 1994 c0 -11 3 -14 6 -6 3 7 2 16 -1 19 -3 4 -6 -2 -5 -13z"/>
<path d="M2683 1990 c-58 -26 -55 -34 3 -10 38 17 45 18 40 5 -8 -22 1 -18 14
5 14 26 -1 26 -57 0z"/>
<path d="M2051 1973 c7 -12 15 -20 18 -17 3 2 -3 12 -13 22 -17 16 -18 16 -5
-5z"/>
<path d="M2167 1979 c7 -7 15 -10 18 -7 3 3 -2 9 -12 12 -14 6 -15 5 -6 -5z"/>
<path d="M2487 1983 c-2 -5 4 -15 13 -24 17 -16 18 -15 16 7 -1 22 -20 33 -29
17z"/>
<path d="M3081 1974 c0 -11 3 -14 6 -6 3 7 2 16 -1 19 -3 4 -6 -2 -5 -13z"/>
<path d="M3340 1966 c0 -31 6 -34 13 -6 3 11 1 23 -4 26 -5 3 -9 -6 -9 -20z"/>
<path d="M4051 1974 c0 -11 3 -14 6 -6 3 7 2 16 -1 19 -3 4 -6 -2 -5 -13z"/>
<path d="M3628 1973 c7 -3 16 -2 19 1 4 3 -2 6 -13 5 -11 0 -14 -3 -6 -6z"/>
<path d="M2037 1941 c3 -13 -1 -21 -14 -24 -15 -4 -14 -5 5 -6 16 -1 22 5 22
18 0 11 -4 22 -9 25 -5 4 -7 -3 -4 -13z"/>
<path d="M2608 1943 c-21 -24 -38 -59 -38 -75 1 -7 8 3 16 22 8 19 22 42 31
52 9 10 14 18 11 18 -3 0 -12 -8 -20 -17z"/>
<path d="M2663 1953 c-7 -2 -13 -11 -13 -19 0 -7 6 -11 13 -8 8 3 14 11 14 19
0 8 -1 15 -1 14 -1 0 -7 -3 -13 -6z"/>
<path d="M2706 1945 c-9 -26 -7 -32 5 -12 6 10 9 21 6 23 -2 3 -7 -2 -11 -11z"/>
<path d="M3690 1956 c0 -2 7 -9 15 -16 9 -7 15 -8 15 -2 0 5 -7 12 -15 16 -8
3 -15 4 -15 2z"/>
<path d="M2241 1934 c0 -11 3 -14 6 -6 3 7 2 16 -1 19 -3 4 -6 -2 -5 -13z"/>
<path d="M1320 1930 c-9 -6 -10 -10 -3 -10 6 0 15 5 18 10 8 12 4 12 -15 0z"/>
<path d="M2525 1930 c-4 -6 -11 -7 -17 -4 -7 5 -8 2 -2 -7 5 -8 9 -20 9 -28 0
-8 5 -16 12 -18 8 -3 11 8 10 31 -2 39 -3 41 -12 26z"/>
<path d="M1551 1926 c2 -2 15 -9 29 -16 23 -12 24 -12 11 3 -7 10 -20 17 -29
17 -8 0 -13 -2 -11 -4z"/>
<path d="M1676 1898 c8 -15 16 -28 18 -28 1 0 1 13 -2 28 -2 16 -10 29 -17 29
-11 0 -11 -5 1 -29z"/>
<path d="M1857 1900 c3 -19 10 -39 14 -44 14 -15 10 15 -6 49 l-14 30 6 -35z"/>
<path d="M3092 1855 c-2 -70 0 -77 12 -60 7 11 16 36 20 55 l6 35 -14 -30 -14
-30 -4 55 c-4 46 -5 43 -6 -25z"/>
<path d="M3450 1920 l-25 -8 28 -1 c15 -1 27 4 27 9 0 6 -1 10 -2 9 -2 -1 -14
-5 -28 -9z"/>
<path d="M2075 1890 c-26 -29 -16 -114 22 -188 l31 -58 -65 -18 c-35 -11 -79
-26 -97 -36 -33 -16 -59 -11 -65 15 -2 6 -5 12 -8 15 -4 3 -2 -1 2 -9 6 -11 4
-13 -8 -8 -40 16 -50 17 -27 3 l25 -15 -24 -1 c-13 0 -21 -3 -18 -7 4 -3 1
-13 -6 -22 -6 -8 3 -5 21 8 l33 23 34 -37 c19 -20 35 -40 35 -45 0 -5 23 -25
50 -43 l51 -34 -51 -6 c-61 -7 -70 -12 -70 -38 0 -38 151 -120 218 -118 17 0
6 6 -30 15 -71 17 -125 44 -157 78 -33 35 -19 47 65 54 l67 5 -36 19 c-47 24
-117 90 -117 111 0 20 35 39 112 61 75 21 79 21 108 -18 27 -37 87 -82 96 -73
3 3 -4 8 -15 12 -61 19 -181 212 -181 289 0 78 46 93 171 56 55 -17 75 -29
105 -63 20 -23 32 -32 26 -21 -13 25 5 84 25 84 7 0 28 -14 48 -31 19 -17 32
-24 29 -15 -7 17 -64 56 -83 56 -7 0 -17 -13 -22 -29 l-10 -29 -36 24 c-78 53
-214 72 -248 34z"/>
<path d="M2613 1888 c-2 -22 13 -24 21 -2 8 21 8 21 -7 21 -7 0 -14 -9 -14
-19z"/>
<path d="M3375 1880 c-3 -5 -1 -10 4 -10 6 0 11 5 11 10 0 6 -2 10 -4 10 -3 0
-8 -4 -11 -10z"/>
<path d="M1464 1864 c5 -13 3 -14 -7 -6 -10 8 -13 7 -13 -7 0 -13 7 -16 29
-13 27 4 27 5 11 23 -21 23 -28 24 -20 3z"/>
<path d="M2708 1870 c-9 -6 -38 -39 -64 -75 -26 -36 -56 -67 -66 -71 -10 -3
-18 -9 -18 -14 0 -13 50 14 55 30 7 22 109 130 123 130 7 0 17 -11 24 -25 6
-13 15 -22 19 -19 11 7 49 -69 49 -99 0 -12 -6 -29 -12 -36 -9 -10 -9 -12 -1
-7 7 4 13 -4 16 -21 2 -17 5 -8 6 22 1 46 5 53 58 107 l57 58 -44 -1 c-42 -2
-43 -2 -12 -8 l33 -6 -45 -44 c-37 -36 -46 -41 -52 -28 -6 17 11 40 36 45 8 2
20 8 25 14 7 7 3 8 -12 4 -12 -4 -24 -2 -28 4 -3 5 -21 10 -38 10 -20 0 -39 8
-50 20 -19 22 -33 24 -59 10z m142 -49 c0 -19 -22 -23 -38 -7 -15 15 -14 16
11 16 15 0 27 -4 27 -9z"/>
<path d="M2590 1845 c0 -30 6 -32 19 -6 8 14 7 20 -4 25 -11 4 -15 -2 -15 -19z"/>
<path d="M3300 1855 c-7 -9 -10 -18 -7 -21 3 -3 10 4 17 15 13 25 8 27 -10 6z"/>
<path d="M3394 1854 c-18 -14 -18 -14 6 -3 31 14 36 19 24 19 -6 0 -19 -7 -30
-16z"/>
<path d="M3591 1865 c0 -5 6 -19 14 -29 11 -14 12 -23 4 -32 -8 -10 -5 -10 15
-1 14 7 20 13 13 15 -7 1 -20 15 -30 30 -9 15 -16 23 -16 17z"/>
<path d="M3640 1866 c0 -2 7 -7 16 -10 8 -3 12 -2 9 4 -6 10 -25 14 -25 6z"/>
<path d="M1535 1850 c3 -5 8 -10 11 -10 2 0 4 5 4 10 0 6 -5 10 -11 10 -5 0
-7 -4 -4 -10z"/>
<path d="M2561 1807 c-1 -30 -6 -40 -22 -44 -13 -4 -17 -8 -9 -13 6 -4 25 7
43 24 18 17 41 36 52 43 11 7 3 6 -17 -2 -35 -14 -37 -14 -41 8 -3 13 -5 6 -6
-16z"/>
<path d="M1530 1820 c0 -5 5 -10 11 -10 5 0 7 5 4 10 -3 6 -8 10 -11 10 -2 0
-4 -4 -4 -10z"/>
<path d="M3507 1805 c-18 -16 -23 -25 -13 -25 8 0 17 6 19 13 3 7 6 5 6 -5 1
-14 7 -16 34 -11 43 8 50 17 9 11 -31 -4 -33 -3 -29 19 2 12 4 23 3 23 0 0
-14 -12 -29 -25z"/>
<path d="M1564 1811 c4 -5 0 -12 -6 -14 -7 -3 -2 -6 11 -6 20 -1 21 1 11 14
-14 16 -25 21 -16 6z"/>
<path d="M1740 1795 c13 -14 25 -25 27 -25 2 0 -4 11 -13 25 -9 14 -21 25 -27
25 -6 0 0 -11 13 -25z"/>
<path d="M2484 1793 c5 -17 3 -23 -7 -23 -9 0 -18 6 -20 13 -3 7 -6 5 -6 -5
-1 -13 7 -18 29 -18 29 0 30 2 19 23 -17 32 -23 36 -15 10z"/>
<path d="M3427 1789 c-4 -16 -3 -18 9 -8 7 6 11 15 8 20 -8 13 -11 11 -17 -12z"/>
<path d="M1010 1785 c0 -5 5 -17 10 -25 5 -8 10 -10 10 -5 0 6 -5 17 -10 25
-5 8 -10 11 -10 5z"/>
<path d="M1732 1760 c7 -11 17 -20 22 -20 5 0 1 9 -9 20 -10 11 -20 20 -22 20
-2 0 2 -9 9 -20z"/>
<path d="M3976 1765 c-9 -26 -7 -32 5 -12 6 10 9 21 6 23 -2 3 -7 -2 -11 -11z"/>
<path d="M1821 1754 c0 -11 3 -14 6 -6 3 7 2 16 -1 19 -3 4 -6 -2 -5 -13z"/>
<path d="M2387 1755 c2 -7 15 -10 29 -7 31 6 30 9 -5 14 -19 3 -27 0 -24 -7z"/>
<path d="M3225 1743 l-18 -28 29 25 c16 14 31 26 33 28 2 1 -3 2 -11 2 -9 0
-24 -12 -33 -27z"/>
<path d="M3415 1754 c-41 -21 -42 -24 -9 -24 22 0 26 3 14 10 -12 8 -11 10 8
10 12 0 22 5 22 10 0 13 1 13 -35 -6z"/>
<path d="M3590 1766 c0 -2 7 -7 16 -10 8 -3 12 -2 9 4 -6 10 -25 14 -25 6z"/>
<path d="M3151 1724 c0 -11 3 -14 6 -6 3 7 2 16 -1 19 -3 4 -6 -2 -5 -13z"/>
<path d="M1791 1728 c2 -2 19 -16 38 -33 25 -22 31 -25 24 -10 -6 11 -8 26 -6
33 3 6 0 12 -6 12 -6 0 -11 -5 -11 -12 0 -9 -3 -9 -12 0 -7 7 -16 12 -22 12
-5 0 -7 -1 -5 -2z"/>
<path d="M3234 1708 l-19 -23 23 19 c12 11 22 21 22 23 0 8 -8 2 -26 -19z"/>
<path d="M2391 1694 c0 -11 3 -14 6 -6 3 7 2 16 -1 19 -3 4 -6 -2 -5 -13z"/>
<path d="M2571 1660 c0 -19 4 -42 9 -50 8 -12 10 -10 9 10 -1 14 -5 36 -9 50
-7 23 -8 22 -9 -10z"/>
<path d="M3136 1678 c-18 -52 -18 -53 11 -28 15 14 30 27 33 29 3 2 -3 1 -12
-2 -9 -3 -19 -1 -21 6 -3 7 -7 5 -11 -5z"/>
<path d="M1528 1673 c12 -2 30 -2 40 0 9 3 -1 5 -23 4 -22 0 -30 -2 -17 -4z"/>
<path d="M2516 1660 c14 -25 13 -40 -4 -40 -10 -1 -4 -7 13 -14 40 -17 50 -31
79 -107 14 -35 25 -59 26 -53 0 19 -32 109 -46 125 -8 8 -14 21 -14 28 0 7 -5
9 -12 5 -7 -5 -9 -2 -5 8 3 10 -5 25 -20 39 -15 13 -22 17 -17 9z m29 -29 c3
-5 2 -12 -3 -15 -5 -3 -9 1 -9 9 0 17 3 19 12 6z"/>
<path d="M1698 1648 c5 -5 16 -8 23 -6 8 3 3 7 -10 11 -17 4 -21 3 -13 -5z"/>
<path d="M2280 1646 c0 -2 8 -10 18 -17 15 -13 16 -12 3 4 -13 16 -21 21 -21
13z"/>
<path d="M2330 1625 c13 -14 26 -25 28 -25 3 0 -5 11 -18 25 -13 14 -26 25
-28 25 -3 0 5 -11 18 -25z"/>
<path d="M1658 1633 c6 -2 18 -2 25 0 6 3 1 5 -13 5 -14 0 -19 -2 -12 -5z"/>
<path d="M2932 1625 c-23 -7 -58 -25 -77 -39 -28 -22 -34 -23 -37 -10 -2 9
-11 -5 -21 -32 l-18 -48 36 41 c46 54 112 86 180 87 48 0 85 -14 85 -33 0 -4
-21 -36 -47 -71 -26 -36 -39 -59 -30 -51 21 17 22 3 1 -27 -8 -12 -22 -22 -31
-22 -9 0 -14 -2 -12 -4 2 -2 38 0 79 4 68 6 70 7 22 9 l-52 1 21 41 c11 23 31
51 42 63 30 30 27 57 -7 84 -34 25 -71 27 -134 7z"/>
<path d="M2821 1614 c0 -11 3 -14 6 -6 3 7 2 16 -1 19 -3 4 -6 -2 -5 -13z"/>
<path d="M1100 1600 c6 -11 13 -20 16 -20 2 0 0 9 -6 20 -6 11 -13 20 -16 20
-2 0 0 -9 6 -20z"/>
<path d="M2401 1604 c0 -11 3 -14 6 -6 3 7 2 16 -1 19 -3 4 -6 -2 -5 -13z"/>
<path d="M2430 1591 c-26 -25 -30 -27 -44 -12 -9 9 -16 11 -16 4 0 -6 5 -13
12 -15 6 -2 13 -14 14 -25 3 -18 -3 -22 -36 -28 -21 -4 -49 -4 -62 -1 -13 3
-17 3 -10 0 6 -3 12 -13 12 -22 1 -30 27 -54 49 -47 12 3 19 11 16 16 -10 15
12 10 29 -7 21 -20 20 -41 -1 -47 -13 -3 -11 -5 6 -6 22 -1 22 -2 -10 -34 -19
-19 -43 -39 -54 -45 -15 -9 -16 -11 -4 -12 8 0 28 14 44 30 27 29 31 30 42 14
17 -24 16 -44 -4 -66 -15 -17 -15 -18 8 -18 17 0 20 3 10 9 -11 7 -11 9 0 13
16 5 19 40 4 50 -6 5 -4 8 4 8 8 0 22 -6 30 -13 21 -18 96 -47 119 -46 9 0 -2
6 -26 14 -23 7 -58 25 -77 39 -19 15 -40 23 -49 20 -11 -4 -16 -1 -16 11 0 9
3 14 8 12 4 -3 8 16 8 41 2 42 1 43 -5 12 l-6 -35 -13 41 c-16 55 -16 60 9
111 13 27 26 42 34 39 8 -3 19 2 25 10 24 28 -20 15 -50 -15z m-40 -107 c0 -8
-4 -12 -10 -9 -18 11 -51 14 -45 4 4 -5 11 -7 16 -4 5 3 6 -1 3 -9 -7 -19 -16
-20 -32 -4 -24 24 -13 38 28 38 30 0 40 -4 40 -16z"/>
<path d="M3423 1613 c9 -2 23 -2 30 0 6 3 -1 5 -18 5 -16 0 -22 -2 -12 -5z"/>
<path d="M3255 1590 c3 -5 16 -10 28 -9 21 0 21 1 2 9 -28 12 -37 12 -30 0z"/>
<path d="M2327 1556 c-4 -10 1 -12 14 -9 23 6 24 9 5 16 -8 3 -17 0 -19 -7z"/>
<path d="M3860 1540 c-6 -11 -8 -20 -6 -20 3 0 10 9 16 20 6 11 8 20 6 20 -3
0 -10 -9 -16 -20z"/>
<path d="M1800 1540 c-9 -6 -10 -10 -3 -10 6 0 15 5 18 10 8 12 4 12 -15 0z"/>
<path d="M2451 1524 c0 -11 3 -14 6 -6 3 7 2 16 -1 19 -3 4 -6 -2 -5 -13z"/>
<path d="M3091 1537 c2 -1 15 -11 29 -22 15 -12 20 -14 12 -4 -6 9 -9 19 -5
22 3 4 -4 7 -17 7 -13 0 -21 -1 -19 -3z"/>
<path d="M3247 1499 c7 -7 15 -10 18 -7 3 3 -2 9 -12 12 -14 6 -15 5 -6 -5z"/>
<path d="M2220 1490 c8 -5 24 -10 34 -10 26 0 18 6 -19 14 -22 5 -26 4 -15 -4z"/>
<path d="M2721 1464 c0 -11 3 -14 6 -6 3 7 2 16 -1 19 -3 4 -6 -2 -5 -13z"/>
<path d="M2742 1434 c-12 -19 -20 -34 -18 -34 7 0 49 61 44 65 -2 2 -13 -12
-26 -31z"/>
<path d="M1190 1456 c0 -2 8 -10 18 -17 15 -13 16 -12 3 4 -13 16 -21 21 -21
13z"/>
<path d="M2707 1433 c-4 -3 -7 -13 -7 -22 1 -13 3 -13 11 2 11 19 8 33 -4 20z"/>
<path d="M2248 1423 c7 -3 16 -2 19 1 4 3 -2 6 -13 5 -11 0 -14 -3 -6 -6z"/>
<path d="M2631 1414 c0 -11 3 -14 6 -6 3 7 2 16 -1 19 -3 4 -6 -2 -5 -13z"/>
<path d="M1220 1416 c0 -2 8 -10 18 -17 15 -13 16 -12 3 4 -13 16 -21 21 -21
13z"/>
<path d="M2120 1410 c8 -5 24 -10 34 -10 26 0 18 6 -19 14 -22 5 -26 4 -15 -4z"/>
<path d="M2196 1407 c-29 -21 -16 -56 29 -81 22 -11 42 -24 45 -28 3 -4 12 -3
20 2 13 8 13 10 1 10 -8 0 -34 9 -58 21 -50 24 -59 58 -20 77 12 6 17 11 11
11 -5 1 -18 -5 -28 -12z"/>
<path d="M3120 1415 c0 -3 21 -15 46 -25 34 -15 44 -24 40 -36 -3 -9 -6 -17
-6 -20 0 -2 -17 -13 -39 -23 -21 -11 -52 -34 -68 -50 -46 -45 -133 -50 -293
-15 -17 4 -5 -7 33 -34 37 -25 54 -42 45 -45 -7 -3 -4 -6 9 -6 45 -2 31 -20
-23 -31 -117 -25 -219 11 -214 76 1 16 2 41 2 57 1 20 6 27 20 27 10 0 21 -7
24 -15 4 -8 16 -15 28 -14 20 0 20 1 -3 10 -20 8 -22 11 -10 27 13 15 12 16
-3 4 -14 -11 -18 -10 -31 8 l-14 21 -7 -23 c-5 -18 -8 -20 -15 -9 -15 23 -1
43 25 38 13 -2 25 1 28 7 2 6 5 3 5 -6 1 -10 5 -18 9 -18 9 0 8 47 -1 57 -4 3
-13 -2 -21 -12 -15 -20 -38 -12 -29 10 3 8 0 15 -7 15 -7 0 -10 -8 -7 -20 3
-11 1 -23 -4 -26 -5 -3 -9 -1 -9 3 0 5 -7 18 -15 29 -14 17 -14 15 0 -13 19
-40 5 -43 -27 -5 -13 15 -30 32 -38 36 -8 5 6 -13 31 -40 67 -72 73 -92 48
-159 -31 -84 -65 -94 -144 -44 -27 17 -54 32 -60 33 -5 1 -16 5 -22 9 -9 6
-13 0 -13 -22 0 -28 2 -30 19 -19 11 7 17 17 14 23 -4 5 -2 6 3 2 5 -5 9 -14
9 -20 0 -7 8 -12 17 -12 9 0 20 -4 25 -9 4 -5 3 -6 -4 -2 -15 8 -17 -5 -4 -19
4 -6 11 -23 15 -38 6 -26 5 -27 -13 -17 -11 5 -23 15 -26 20 -4 6 -11 8 -16 4
-5 -3 -7 -9 -4 -14 3 -5 0 -12 -6 -15 -11 -7 56 -85 73 -85 12 0 10 94 -2 126
-6 15 -9 28 -7 30 2 2 19 -2 39 -8 44 -13 94 3 104 34 5 18 7 18 23 4 29 -27
89 -46 138 -45 59 1 135 20 140 35 2 6 -19 26 -47 44 -28 18 -49 34 -48 35 2
2 28 -1 58 -7 30 -5 81 -8 112 -6 50 4 62 9 102 46 25 23 52 42 59 42 21 0 60
47 54 64 -3 8 -24 24 -46 36 -42 21 -51 24 -51 15z m-670 -365 c0 -5 3 -9 8
-9 24 4 32 -4 32 -33 l0 -32 -35 34 c-19 18 -32 37 -29 42 7 11 24 10 24 -2z"/>
<path d="M3749 1383 c-13 -16 -12 -17 4 -4 16 13 21 21 13 21 -2 0 -10 -8 -17
-17z"/>
<path d="M2751 1374 c0 -11 3 -14 6 -6 3 7 2 16 -1 19 -3 4 -6 -2 -5 -13z"/>
<path d="M1250 1377 c0 -2 15 -16 33 -33 l32 -29 -29 33 c-28 30 -36 37 -36
29z"/>
<path d="M1981 1377 c2 -1 13 -9 24 -17 19 -14 19 -14 6 3 -7 9 -18 17 -24 17
-6 0 -8 -1 -6 -3z"/>
<path d="M2735 1340 c-3 -6 1 -13 9 -16 9 -3 16 -10 16 -16 0 -5 -4 -6 -10 -3
-5 3 -10 1 -10 -4 0 -15 17 -14 26 1 4 6 -1 17 -10 24 -16 12 -16 13 1 17 15
4 16 5 1 6 -9 0 -20 -4 -23 -9z"/>
<path d="M3630 1253 l-85 -88 88 85 c48 46 87 86 87 87 0 8 -11 -3 -90 -84z"/>
<path d="M2105 1306 c17 -8 55 -15 85 -14 l55 1 -65 7 c-36 4 -74 10 -85 14
-11 3 -6 0 10 -8z"/>
<path d="M2377 1313 c-9 -2 -15 -9 -11 -14 3 -6 0 -16 -6 -24 -9 -11 -9 -15
-1 -15 6 0 12 -10 12 -22 1 -20 2 -21 6 -4 5 19 6 18 20 -5 l14 -24 -7 30 c-4
17 -8 42 -8 58 -1 15 -1 26 -1 26 0 -1 -8 -3 -18 -6z"/>
<path d="M1340 1275 c19 -19 36 -35 39 -35 3 0 -10 16 -29 35 -19 19 -36 35
-39 35 -3 0 10 -16 29 -35z"/>
<path d="M2460 1299 c0 -5 5 -7 10 -4 6 3 10 8 10 11 0 2 -4 4 -10 4 -5 0 -10
-5 -10 -11z"/>
<path d="M2493 1300 c2 -8 14 -16 28 -17 19 -1 20 -1 4 4 -11 3 -24 10 -28 17
-6 7 -7 6 -4 -4z"/>
<path d="M2302 1293 c-6 -2 -10 -9 -6 -14 3 -5 -7 -9 -21 -9 -14 0 -24 4 -21
9 3 4 -7 6 -22 2 -25 -5 -25 -6 -4 -9 12 -2 20 -8 16 -13 -3 -6 4 -7 19 -4 21
6 47 -9 36 -20 -2 -1 -44 -6 -94 -9 -85 -6 -89 -6 -65 9 l25 16 -25 -7 c-14
-3 -31 -10 -39 -14 -20 -11 16 -21 66 -20 21 1 61 2 89 3 45 1 51 4 50 22 -1
11 10 28 24 38 l25 19 -24 -7 c-16 -5 -21 -4 -17 4 8 12 7 12 -12 4z"/>
<path d="M2458 1273 c6 -2 18 -2 25 0 6 3 1 5 -13 5 -14 0 -19 -2 -12 -5z"/>
<path d="M2616 1253 c-6 -14 -5 -15 5 -6 7 7 10 15 7 18 -3 3 -9 -2 -12 -12z"/>
<path d="M2329 1258 c-5 -18 -9 -62 -6 -58 16 18 26 50 17 55 -5 3 -10 5 -11
3z"/>
<path d="M2167 1187 c2 -4 14 -5 26 -2 18 5 17 2 -8 -19 -16 -14 -41 -26 -54
-26 l-24 0 24 28 24 27 -27 -24 c-16 -14 -28 -26 -28 -27 0 -1 13 -9 28 -16
28 -15 56 -13 47 2 -3 5 11 22 31 38 l36 30 -40 -2 c-22 0 -38 -5 -35 -9z"/>
<path d="M1455 1170 c10 -11 20 -20 23 -20 3 0 -3 9 -13 20 -10 11 -20 20 -23
20 -3 0 3 -9 13 -20z"/>
<path d="M2257 1183 c-11 -10 -8 -153 3 -153 14 0 79 59 92 84 6 11 -11 -1
-38 -27 l-49 -48 -3 42 c-2 27 1 45 10 50 11 7 10 9 -1 9 -9 0 -12 8 -9 25 6
27 5 29 -5 18z"/>
<path d="M2307 1170 c-3 -13 -4 -26 -2 -29 3 -2 5 1 5 7 0 7 7 12 15 12 8 0
15 8 15 18 0 13 -2 14 -9 3 -7 -11 -9 -11 -13 0 -3 8 -7 3 -11 -11z"/>
<path d="M2838 1153 c7 -3 16 -2 19 1 4 3 -2 6 -13 5 -11 0 -14 -3 -6 -6z"/>
<path d="M3509 1143 c-13 -16 -12 -17 4 -4 16 13 21 21 13 21 -2 0 -10 -8 -17
-17z"/>
<path d="M2327 1143 c-4 -3 -7 -11 -7 -17 0 -6 5 -5 12 2 6 6 9 14 7 17 -3 3
-9 2 -12 -2z"/>
<path d="M2403 1130 c-7 -11 -13 -28 -13 -37 0 -15 2 -15 9 -3 6 8 7 19 3 25
-3 5 2 4 11 -4 9 -7 17 -10 17 -7 0 4 10 1 23 -5 20 -11 21 -11 8 4 -7 10 -19
17 -26 17 -8 0 -15 7 -17 15 -2 13 -6 12 -15 -5z"/>
<path d="M1515 1120 c10 -11 20 -20 23 -20 3 0 -3 9 -13 20 -10 11 -20 20 -23
20 -3 0 3 -9 13 -20z"/>
<path d="M2057 1105 l-28 -35 46 0 c25 0 45 4 45 8 0 4 -17 6 -37 4 -36 -4
-37 -4 -22 14 18 21 32 44 27 44 -2 0 -16 -16 -31 -35z"/>
<path d="M2201 1126 c-6 -8 -25 -19 -42 -26 -16 -7 -28 -15 -25 -17 6 -7 60
23 75 41 8 9 11 16 8 16 -2 0 -10 -6 -16 -14z"/>
<path d="M3459 1103 c-13 -16 -12 -17 4 -4 9 7 17 15 17 17 0 8 -8 3 -21 -13z"/>
<path d="M3234 964 c-18 -14 -18 -15 4 -4 12 6 22 13 22 15 0 8 -5 6 -26 -11z"/>
<path d="M1950 880 c8 -5 20 -10 25 -10 6 0 3 5 -5 10 -8 5 -19 10 -25 10 -5
0 -3 -5 5 -10z"/>
<path d="M2888 833 c7 -3 16 -2 19 1 4 3 -2 6 -13 5 -11 0 -14 -3 -6 -6z"/>
<path d="M2138 823 c7 -3 16 -2 19 1 4 3 -2 6 -13 5 -11 0 -14 -3 -6 -6z"/>
<path d="M2848 823 c7 -3 16 -2 19 1 4 3 -2 6 -13 5 -11 0 -14 -3 -6 -6z"/>
<path d="M2188 813 c7 -3 16 -2 19 1 4 3 -2 6 -13 5 -11 0 -14 -3 -6 -6z"/>
<path d="M2798 813 c7 -3 16 -2 19 1 4 3 -2 6 -13 5 -11 0 -14 -3 -6 -6z"/>
<path d="M2248 803 c7 -3 16 -2 19 1 4 3 -2 6 -13 5 -11 0 -14 -3 -6 -6z"/>
<path d="M2738 803 c6 -2 18 -2 25 0 6 3 1 5 -13 5 -14 0 -19 -2 -12 -5z"/>
<path d="M2323 793 c9 -2 23 -2 30 0 6 3 -1 5 -18 5 -16 0 -22 -2 -12 -5z"/>
<path d="M2653 793 c9 -2 25 -2 35 0 9 3 1 5 -18 5 -19 0 -27 -2 -17 -5z"/>
<path d="M2468 783 c23 -2 59 -2 80 0 20 2 1 4 -43 4 -44 0 -61 -2 -37 -4z"/>
</g>
</svg>
